# xmcd CD database file
#
# Track frame offsets:
#	150
#	17010
#	29477
#	39030
#	49190
#	59217
#	71160
#	81217
#	91997
#	107102
#	120985
#	134720
#	145960
#	158495
#	169567
#
# Disc length: 2334 seconds
#
# Revision: 0
# Processed by: cddbd v1.4PL0 Copyright (c) Steve Scherf et al.
# Submitted via: CDex 1.50Beta7
#
DISCID=cb091c0f
DTITLE=Willie Nelson - Broken Promises
DYEAR=1900
DGENRE=Country
TTITLE0=I Let My Mind Wonder
TTITLE1=I Can´t Find The Time
TTITLE2=Building Heartaches
TTITLE3=Broken Promises
TTITLE4=I Didn´t Sleep A Wink
TTITLE5=Is There Somethimg On Your Mind
TTITLE6=A New Way To Cry
TTITLE7=I Feel Sorry For Him
TTITLE8=Face Of A Fighter
TTITLE9=No Tomorrow In Sight
TTITLE10=Everything But You
TTITLE11=Go Away
TTITLE12=Shelter On My Arms
TTITLE13=Blame It On The Times
TTITLE14=The Ghost
EXTD=
EXTT0=
EXTT1=
EXTT2=
EXTT3=
EXTT4=
EXTT5=
EXTT6=
EXTT7=
EXTT8=
EXTT9=
EXTT10=
EXTT11=
EXTT12=
EXTT13=
EXTT14=
PLAYORDER=
